<svg width="60" height="60" viewBox="0 0 60 60" fill="none" xmlns="http://www.w3.org/2000/svg">
<path d="M30 0C13.4573 0 0 13.4573 0 30C0 46.5427 13.4573 60 30 60C46.5427 60 60 46.5427 60 30C60 13.4573 46.5427 0 30 0Z" fill="#F44336"/>
<path d="M40.9475 37.4122C41.9248 38.3899 41.9248 39.9697 40.9475 40.9475C40.46 41.435 39.82 41.6799 39.1796 41.6799C38.5396 41.6799 37.8997 41.435 37.4122 40.9475L29.8998 33.4347L22.3874 40.9475C21.8999 41.435 21.26 41.6799 20.62 41.6799C19.9796 41.6799 19.3397 41.435 18.8521 40.9475C17.8748 39.9697 17.8748 38.3899 18.8521 37.4122L26.365 29.8998L18.8521 22.3874C17.8748 21.4097 17.8748 19.8299 18.8521 18.8521C19.8299 17.8748 21.4097 17.8748 22.3874 18.8521L29.8998 26.365L37.4122 18.8521C38.3899 17.8748 39.9697 17.8748 40.9475 18.8521C41.9248 19.8299 41.9248 21.4097 40.9475 22.3874L33.4347 29.8998L40.9475 37.4122Z" fill="#FAFAFA"/>
</svg>
