<svg width="54" height="49" viewBox="0 0 54 49" fill="none" xmlns="http://www.w3.org/2000/svg">
<path d="M17.3897 37.8939C17.3897 37.8939 14.5936 38.9829 19.3823 39.3503C25.1845 39.7939 28.1495 39.7303 34.5418 38.9216C34.5418 38.9216 36.2258 39.6263 38.5732 40.2371C24.2384 44.347 6.13196 39.9988 17.3897 37.8939ZM15.6371 32.5298C15.6371 32.5298 12.5002 34.0839 17.293 34.416C23.4911 34.8442 28.3847 34.8792 36.857 33.7879C36.857 33.7879 38.026 34.5828 39.8672 35.017C22.5391 38.4086 3.23906 35.2839 15.6371 32.5298Z" fill="#0074BD"/>
<path d="M30.4026 23.4288C33.9366 26.1511 29.4758 28.5987 29.4758 28.5987C29.4758 28.5987 38.4437 25.5011 34.3261 21.6203C30.4789 18.003 27.5296 16.2063 43.4969 10.0088C43.4969 10.0092 18.4327 14.1973 30.4026 23.4288Z" fill="#EA2D2E"/>
<path d="M49.3609 41.862C49.3609 41.862 51.4309 43.0043 47.0804 43.8871C38.8087 45.5641 12.646 46.0697 5.37971 43.9543C2.76895 43.1935 7.66669 42.1387 9.20758 41.9162C10.8142 41.6834 11.7315 41.7258 11.7315 41.7258C8.82632 40.357 -7.0459 44.4147 3.67048 45.5786C32.8933 48.7488 56.9398 44.1509 49.3609 41.862ZM18.7362 26.9707C18.7362 26.9707 5.42957 29.0861 14.0244 29.8551C17.654 30.1802 24.8862 30.1056 31.6275 29.7272C37.1353 29.4174 42.6624 28.756 42.6624 28.756C42.6624 28.756 40.7221 29.313 39.3167 29.9544C25.8013 32.3337 -0.301677 31.2255 7.21387 28.7933C13.5675 26.7367 18.7362 26.9707 18.7362 26.9707ZM42.6073 35.9C56.345 31.1238 49.9926 26.5338 45.5588 27.1521C44.4749 27.3032 43.9886 27.4347 43.9886 27.4347C43.9886 27.4347 44.3922 27.0111 45.1617 26.829C53.9325 24.7661 60.6767 32.9146 42.3328 36.1422C42.3328 36.1414 42.5434 36.0138 42.6073 35.9Z" fill="#0074BD"/>
<path d="M34.3248 0C34.3248 0 41.9312 5.09369 27.1083 12.9238C15.2212 19.207 24.3979 22.7886 27.1042 26.8824C20.1647 22.6928 15.0746 19.004 18.4889 15.5712C23.5028 10.5332 37.393 8.08962 34.3248 0Z" fill="#EA2D2E"/>
<path d="M20.0873 48.8464C33.2707 49.4104 53.521 48.5323 54.0002 44.3572C54.0002 44.3572 53.0787 45.9399 43.1038 47.1957C31.8501 48.6136 17.9675 48.4483 9.73633 47.5388C9.73633 47.5392 11.4227 48.4734 20.0873 48.8464Z" fill="#0074BD"/>
</svg>
