<svg width="20" height="20" viewBox="0 0 20 20" fill="none" xmlns="http://www.w3.org/2000/svg">
<g opacity="0.12" clip-path="url(#clip0_136_183)">
<path d="M3.3335 8.33325V0.833252" stroke="black" stroke-width="2" stroke-miterlimit="10" stroke-linecap="square"/>
<path d="M3.3335 19.1665V16.6665" stroke="black" stroke-width="2" stroke-miterlimit="10" stroke-linecap="square"/>
<path d="M10 1.66659V0.833252" stroke="black" stroke-width="2" stroke-miterlimit="10" stroke-linecap="square"/>
<path d="M10 19.1667V10" stroke="black" stroke-width="2" stroke-miterlimit="10" stroke-linecap="square"/>
<path d="M16.667 8.33325V0.833252" stroke="black" stroke-width="2" stroke-miterlimit="10" stroke-linecap="square"/>
<path d="M16.667 19.1665V16.6665" stroke="black" stroke-width="2" stroke-miterlimit="10" stroke-linecap="square"/>
<path d="M3.3335 16.6665C4.71421 16.6665 5.8335 15.5472 5.8335 14.1665C5.8335 12.7858 4.71421 11.6665 3.3335 11.6665C1.95278 11.6665 0.833496 12.7858 0.833496 14.1665C0.833496 15.5472 1.95278 16.6665 3.3335 16.6665Z" stroke="black" stroke-width="2" stroke-miterlimit="10" stroke-linecap="square"/>
<path d="M10 10C11.3807 10 12.5 8.88071 12.5 7.5C12.5 6.11929 11.3807 5 10 5C8.61929 5 7.5 6.11929 7.5 7.5C7.5 8.88071 8.61929 10 10 10Z" stroke="black" stroke-width="2" stroke-miterlimit="10" stroke-linecap="square"/>
<path d="M16.667 16.6665C18.0477 16.6665 19.167 15.5472 19.167 14.1665C19.167 12.7858 18.0477 11.6665 16.667 11.6665C15.2863 11.6665 14.167 12.7858 14.167 14.1665C14.167 15.5472 15.2863 16.6665 16.667 16.6665Z" stroke="black" stroke-width="2" stroke-miterlimit="10" stroke-linecap="square"/>
</g>
<defs>
<clipPath id="clip0_136_183">
<rect width="20" height="20" fill="white"/>
</clipPath>
</defs>
</svg>
