<svg width="34" height="36" viewBox="0 0 34 36" fill="none" xmlns="http://www.w3.org/2000/svg">
<rect width="34" height="36" fill="#323944"/>
<g id="Screen 6 [ Home ]">
<g clip-path="url(#clip0_0_1)">
<rect x="-50" y="-50" width="414" height="896" fill="white"/>
<g id="menu">
<g id="Group 351">
<g id="Ellipse 89" filter="url(#filter0_d_0_1)">
<ellipse cx="17" cy="18" rx="34" ry="36" fill="white"/>
</g>
<g id="Frame" clip-path="url(#clip1_0_1)">
<path id="Vector" d="M9.56234 3.75C10.353 3.75 11.1359 3.91489 11.8664 4.23527C12.5969 4.55564 13.2606 5.02522 13.8197 5.61719C14.3788 6.20917 14.8223 6.91194 15.1249 7.68539C15.4274 8.45884 15.5832 9.28782 15.5832 10.125V16.5H9.56234C7.96552 16.5 6.43409 15.8284 5.30497 14.6328C4.17584 13.4373 3.54151 11.8158 3.54151 10.125C3.54151 8.43425 4.17584 6.81274 5.30497 5.61719C6.43409 4.42165 7.96552 3.75 9.56234 3.75ZM12.7498 13.5V10.125C12.7498 9.45749 12.5629 8.80497 12.2126 8.24995C11.8624 7.69493 11.3646 7.26235 10.7821 7.00691C10.1997 6.75146 9.5588 6.68462 8.94049 6.81485C8.32217 6.94507 7.75422 7.26651 7.30844 7.73851C6.86266 8.21052 6.55908 8.81188 6.43609 9.46657C6.3131 10.1213 6.37622 10.7999 6.61747 11.4166C6.85873 12.0333 7.26728 12.5604 7.79146 12.9312C8.31564 13.3021 8.93191 13.5 9.56234 13.5H12.7498ZM9.56234 19.5H15.5832V25.875C15.5832 27.1359 15.2301 28.3684 14.5685 29.4168C13.9069 30.4651 12.9666 31.2822 11.8664 31.7647C10.7662 32.2472 9.55566 32.3735 8.38773 32.1275C7.21981 31.8815 6.147 31.2744 5.30497 30.3828C4.46294 29.4912 3.88951 28.3553 3.6572 27.1187C3.42488 25.8821 3.54411 24.6003 3.99982 23.4354C4.45552 22.2705 5.22722 21.2749 6.21734 20.5744C7.20746 19.8739 8.37153 19.5 9.56234 19.5ZM9.56234 22.5C8.93191 22.5 8.31564 22.6979 7.79146 23.0688C7.26728 23.4396 6.85873 23.9667 6.61747 24.5834C6.37622 25.2001 6.3131 25.8787 6.43609 26.5334C6.55908 27.1881 6.86266 27.7895 7.30844 28.2615C7.75422 28.7335 8.32217 29.0549 8.94049 29.1852C9.5588 29.3154 10.1997 29.2485 10.7821 28.9931C11.3646 28.7376 11.8624 28.3051 12.2126 27.75C12.5629 27.195 12.7498 26.5425 12.7498 25.875V22.5H9.56234ZM24.4373 3.75C26.0342 3.75 27.5656 4.42165 28.6947 5.61719C29.8238 6.81274 30.4582 8.43425 30.4582 10.125C30.4582 11.8158 29.8238 13.4373 28.6947 14.6328C27.5656 15.8284 26.0342 16.5 24.4373 16.5H18.4165V10.125C18.4165 8.43425 19.0508 6.81274 20.18 5.61719C21.3091 4.42165 22.8405 3.75 24.4373 3.75ZM24.4373 13.5C25.0678 13.5 25.684 13.3021 26.2082 12.9312C26.7324 12.5604 27.141 12.0333 27.3822 11.4166C27.6235 10.7999 27.6866 10.1213 27.5636 9.46657C27.4406 8.81188 27.137 8.21052 26.6912 7.73851C26.2455 7.26651 25.6775 6.94507 25.0592 6.81485C24.4409 6.68462 23.8 6.75146 23.2175 7.00691C22.6351 7.26235 22.1373 7.69493 21.787 8.24995C21.4368 8.80497 21.2498 9.45749 21.2498 10.125V13.5H24.4373ZM18.4165 19.5H24.4373C25.6281 19.5 26.7922 19.8739 27.7823 20.5744C28.7725 21.2749 29.5442 22.2705 29.9999 23.4354C30.4556 24.6003 30.5748 25.8821 30.3425 27.1187C30.1102 28.3553 29.5367 29.4912 28.6947 30.3828C27.8527 31.2744 26.7799 31.8815 25.6119 32.1275C24.444 32.3735 23.2334 32.2472 22.1333 31.7647C21.0331 31.2822 20.0928 30.4651 19.4312 29.4168C18.7696 28.3684 18.4165 27.1359 18.4165 25.875V19.5ZM21.2498 22.5V25.875C21.2498 26.5425 21.4368 27.195 21.787 27.75C22.1373 28.3051 22.6351 28.7376 23.2175 28.9931C23.8 29.2485 24.4409 29.3154 25.0592 29.1852C25.6775 29.0549 26.2455 28.7335 26.6912 28.2615C27.137 27.7895 27.4406 27.1881 27.5636 26.5334C27.6866 25.8787 27.6235 25.2001 27.3822 24.5834C27.141 23.9667 26.7324 23.4396 26.2082 23.0688C25.684 22.6979 25.0678 22.5 24.4373 22.5H21.2498Z" fill="#330742"/>
</g>
</g>
</g>
</g>
<rect x="-49.5" y="-49.5" width="413" height="895" stroke="black"/>
</g>
<defs>
<filter id="filter0_d_0_1" x="-29" y="-25" width="92" height="96" filterUnits="userSpaceOnUse" color-interpolation-filters="sRGB">
<feFlood flood-opacity="0" result="BackgroundImageFix"/>
<feColorMatrix in="SourceAlpha" type="matrix" values="0 0 0 0 0 0 0 0 0 0 0 0 0 0 0 0 0 0 127 0" result="hardAlpha"/>
<feOffset dy="5"/>
<feGaussianBlur stdDeviation="6"/>
<feColorMatrix type="matrix" values="0 0 0 0 0.133333 0 0 0 0 0.14902 0 0 0 0 0.298039 0 0 0 0.1 0"/>
<feBlend mode="normal" in2="BackgroundImageFix" result="effect1_dropShadow_0_1"/>
<feBlend mode="normal" in="SourceGraphic" in2="effect1_dropShadow_0_1" result="shape"/>
</filter>
<clipPath id="clip0_0_1">
<rect x="-50" y="-50" width="414" height="896" fill="white"/>
</clipPath>
<clipPath id="clip1_0_1">
<rect width="34" height="36" fill="white"/>
</clipPath>
</defs>
</svg>
