<svg width="30" height="30" viewBox="0 0 30 30" fill="none" xmlns="http://www.w3.org/2000/svg">
<path d="M26.9998 14.0001H5.39985L10.6999 8.70009C10.7946 8.60978 10.87 8.50118 10.9216 8.38085C10.9731 8.26053 10.9997 8.13099 10.9997 8.00009C10.9997 7.8692 10.9731 7.73966 10.9216 7.61934C10.87 7.49901 10.7946 7.3904 10.6999 7.30009C10.6095 7.20534 10.5009 7.1299 10.3806 7.07836C10.2603 7.02682 10.1307 7.00024 9.99985 7.00024C9.86895 7.00024 9.73942 7.02682 9.61909 7.07836C9.49877 7.1299 9.39016 7.20534 9.29985 7.30009L2.29985 14.3001C2.20509 14.3904 2.12966 14.499 2.07812 14.6193C2.02658 14.7397 2 14.8692 2 15.0001C2 15.131 2.02658 15.2605 2.07812 15.3809C2.12966 15.5012 2.20509 15.6098 2.29985 15.7001L9.29985 22.7001C9.39016 22.7949 9.49877 22.8703 9.61909 22.9218C9.73942 22.9734 9.86895 22.9999 9.99985 22.9999C10.1307 22.9999 10.2603 22.9734 10.3806 22.9218C10.5009 22.8703 10.6095 22.7949 10.6999 22.7001C10.7946 22.6098 10.87 22.5012 10.9216 22.3809C10.9731 22.2605 10.9997 22.131 10.9997 22.0001C10.9997 21.8692 10.9731 21.7397 10.9216 21.6193C10.87 21.499 10.7946 21.3904 10.6999 21.3001L5.39985 16.0001H26.9998C27.1333 16.0081 27.2669 15.9877 27.3918 15.9403C27.5168 15.8929 27.6303 15.8195 27.7248 15.725C27.8193 15.6305 27.8927 15.517 27.9401 15.3921C27.9875 15.2671 28.0079 15.1335 27.9998 15.0001C28.0079 14.8667 27.9875 14.7331 27.9401 14.6081C27.8927 14.4832 27.8193 14.3697 27.7248 14.2752C27.6303 14.1807 27.5168 14.1073 27.3918 14.0599C27.2669 14.0124 27.1333 13.9921 26.9998 14.0001Z" fill="#22264C"/>
</svg>
