<svg width="247" height="57" viewBox="0 0 247 57" fill="none" xmlns="http://www.w3.org/2000/svg">
<path d="M91.64 34V12.85H94.13V31.84H104.81V34H91.64ZM114.261 34.27C111.901 34.27 110.041 33.59 108.681 32.23C107.321 30.85 106.641 28.94 106.641 26.5C106.641 24.92 106.941 23.55 107.541 22.39C108.141 21.21 108.981 20.3 110.061 19.66C111.141 19 112.381 18.67 113.781 18.67C115.161 18.67 116.321 18.96 117.261 19.54C118.201 20.12 118.921 20.95 119.421 22.03C119.921 23.09 120.171 24.35 120.171 25.81V26.71H108.501V25.18H118.581L118.071 25.57C118.071 23.97 117.711 22.72 116.991 21.82C116.271 20.92 115.201 20.47 113.781 20.47C112.281 20.47 111.111 21 110.271 22.06C109.431 23.1 109.011 24.51 109.011 26.29V26.56C109.011 28.44 109.471 29.87 110.391 30.85C111.331 31.81 112.641 32.29 114.321 32.29C115.221 32.29 116.061 32.16 116.841 31.9C117.641 31.62 118.401 31.17 119.121 30.55L119.961 32.26C119.301 32.9 118.461 33.4 117.441 33.76C116.441 34.1 115.381 34.27 114.261 34.27ZM129.62 34.27C128.28 34.27 127.11 33.96 126.11 33.34C125.11 32.7 124.33 31.8 123.77 30.64C123.23 29.48 122.96 28.09 122.96 26.47C122.96 24.83 123.23 23.43 123.77 22.27C124.33 21.11 125.11 20.22 126.11 19.6C127.11 18.98 128.28 18.67 129.62 18.67C130.98 18.67 132.15 19.02 133.13 19.72C134.13 20.4 134.79 21.33 135.11 22.51H134.75L135.08 18.94H137.42C137.36 19.52 137.3 20.11 137.24 20.71C137.2 21.29 137.18 21.86 137.18 22.42V34H134.75V30.46H135.08C134.76 31.64 134.1 32.57 133.1 33.25C132.1 33.93 130.94 34.27 129.62 34.27ZM130.1 32.29C131.54 32.29 132.68 31.8 133.52 30.82C134.36 29.82 134.78 28.37 134.78 26.47C134.78 24.55 134.36 23.1 133.52 22.12C132.68 21.12 131.54 20.62 130.1 20.62C128.68 20.62 127.54 21.12 126.68 22.12C125.84 23.1 125.42 24.55 125.42 26.47C125.42 28.37 125.84 29.82 126.68 30.82C127.54 31.8 128.68 32.29 130.1 32.29ZM141.818 34V22.57C141.818 21.97 141.798 21.36 141.758 20.74C141.738 20.12 141.698 19.52 141.638 18.94H143.978L144.278 22.6L143.858 22.63C144.058 21.73 144.408 20.99 144.908 20.41C145.408 19.83 145.998 19.4 146.678 19.12C147.358 18.82 148.068 18.67 148.808 18.67C149.108 18.67 149.368 18.68 149.588 18.7C149.828 18.72 150.048 18.77 150.248 18.85L150.218 21.01C149.918 20.91 149.638 20.85 149.378 20.83C149.138 20.79 148.858 20.77 148.538 20.77C147.658 20.77 146.888 20.98 146.228 21.4C145.588 21.82 145.098 22.36 144.758 23.02C144.438 23.68 144.278 24.38 144.278 25.12V34H141.818ZM152.776 34V22.42C152.776 21.86 152.746 21.29 152.686 20.71C152.646 20.11 152.596 19.52 152.536 18.94H154.876L155.176 22.24H154.816C155.256 21.08 155.956 20.2 156.916 19.6C157.896 18.98 159.026 18.67 160.306 18.67C162.086 18.67 163.426 19.15 164.326 20.11C165.246 21.05 165.706 22.54 165.706 24.58V34H163.276V24.73C163.276 23.31 162.986 22.28 162.406 21.64C161.846 20.98 160.966 20.65 159.766 20.65C158.366 20.65 157.256 21.08 156.436 21.94C155.616 22.8 155.206 23.95 155.206 25.39V34H152.776ZM187.657 34.27C185.537 34.27 183.737 33.83 182.257 32.95C180.777 32.07 179.637 30.82 178.837 29.2C178.057 27.58 177.667 25.65 177.667 23.41C177.667 21.17 178.057 19.25 178.837 17.65C179.637 16.03 180.777 14.78 182.257 13.9C183.737 13.02 185.537 12.58 187.657 12.58C189.157 12.58 190.497 12.81 191.677 13.27C192.857 13.73 193.887 14.4 194.767 15.28L193.837 17.26C192.877 16.42 191.927 15.81 190.987 15.43C190.047 15.03 188.947 14.83 187.687 14.83C185.267 14.83 183.427 15.58 182.167 17.08C180.907 18.58 180.277 20.69 180.277 23.41C180.277 26.13 180.907 28.25 182.167 29.77C183.427 31.27 185.267 32.02 187.687 32.02C188.947 32.02 190.047 31.83 190.987 31.45C191.927 31.05 192.877 30.42 193.837 29.56L194.767 31.57C193.887 32.43 192.857 33.1 191.677 33.58C190.497 34.04 189.157 34.27 187.657 34.27ZM203.81 34.27C202.37 34.27 201.11 33.96 200.03 33.34C198.97 32.7 198.15 31.8 197.57 30.64C196.99 29.46 196.7 28.07 196.7 26.47C196.7 24.85 196.99 23.46 197.57 22.3C198.15 21.14 198.97 20.25 200.03 19.63C201.11 18.99 202.37 18.67 203.81 18.67C205.27 18.67 206.53 18.99 207.59 19.63C208.67 20.25 209.5 21.14 210.08 22.3C210.68 23.46 210.98 24.85 210.98 26.47C210.98 28.07 210.68 29.46 210.08 30.64C209.5 31.8 208.67 32.7 207.59 33.34C206.53 33.96 205.27 34.27 203.81 34.27ZM203.81 32.29C205.25 32.29 206.39 31.8 207.23 30.82C208.07 29.82 208.49 28.37 208.49 26.47C208.49 24.55 208.06 23.1 207.2 22.12C206.36 21.12 205.23 20.62 203.81 20.62C202.39 20.62 201.26 21.12 200.42 22.12C199.58 23.1 199.16 24.55 199.16 26.47C199.16 28.37 199.58 29.82 200.42 30.82C201.26 31.8 202.39 32.29 203.81 32.29ZM220.468 34.27C219.148 34.27 217.988 33.96 216.988 33.34C215.988 32.7 215.208 31.8 214.648 30.64C214.108 29.48 213.838 28.09 213.838 26.47C213.838 24.83 214.108 23.43 214.648 22.27C215.208 21.11 215.988 20.22 216.988 19.6C217.988 18.98 219.148 18.67 220.468 18.67C221.828 18.67 222.998 19.01 223.978 19.69C224.978 20.37 225.648 21.29 225.988 22.45H225.628V11.92H228.058V34H225.658V30.4H225.988C225.668 31.6 225.008 32.55 224.008 33.25C223.008 33.93 221.828 34.27 220.468 34.27ZM220.978 32.29C222.398 32.29 223.538 31.8 224.398 30.82C225.258 29.82 225.688 28.37 225.688 26.47C225.688 24.55 225.258 23.1 224.398 22.12C223.538 21.12 222.398 20.62 220.978 20.62C219.558 20.62 218.418 21.12 217.558 22.12C216.718 23.1 216.298 24.55 216.298 26.47C216.298 28.37 216.718 29.82 217.558 30.82C218.418 31.8 219.558 32.29 220.978 32.29ZM239.447 34.27C237.087 34.27 235.227 33.59 233.867 32.23C232.507 30.85 231.827 28.94 231.827 26.5C231.827 24.92 232.127 23.55 232.727 22.39C233.327 21.21 234.167 20.3 235.247 19.66C236.327 19 237.567 18.67 238.967 18.67C240.347 18.67 241.507 18.96 242.447 19.54C243.387 20.12 244.107 20.95 244.607 22.03C245.107 23.09 245.357 24.35 245.357 25.81V26.71H233.687V25.18H243.767L243.257 25.57C243.257 23.97 242.897 22.72 242.177 21.82C241.457 20.92 240.387 20.47 238.967 20.47C237.467 20.47 236.297 21 235.457 22.06C234.617 23.1 234.197 24.51 234.197 26.29V26.56C234.197 28.44 234.657 29.87 235.577 30.85C236.517 31.81 237.827 32.29 239.507 32.29C240.407 32.29 241.247 32.16 242.027 31.9C242.827 31.62 243.587 31.17 244.307 30.55L245.147 32.26C244.487 32.9 243.647 33.4 242.627 33.76C241.627 34.1 240.567 34.27 239.447 34.27Z" fill="#8518FF"/>
<path d="M91.232 43.032H97.532V43.984H92.366V47.456H97.252V48.422H92.366V52.048H97.532V53H91.232V43.032ZM99.2388 48.772H103.201V49.71H99.2388V48.772ZM105.451 43.032H106.599V52.02H111.597V53H105.451V43.032ZM118.82 49.444H113.654C113.663 50.34 113.869 51.0167 114.27 51.474C114.681 51.9313 115.273 52.16 116.048 52.16C116.869 52.16 117.625 51.8847 118.316 51.334L118.694 52.16C118.386 52.4493 117.989 52.678 117.504 52.846C117.028 53.014 116.538 53.098 116.034 53.098C114.933 53.098 114.069 52.776 113.444 52.132C112.819 51.4787 112.506 50.5873 112.506 49.458C112.506 48.7393 112.646 48.1047 112.926 47.554C113.206 46.994 113.598 46.56 114.102 46.252C114.606 45.944 115.18 45.79 115.824 45.79C116.757 45.79 117.49 46.098 118.022 46.714C118.554 47.3207 118.82 48.1607 118.82 49.234V49.444ZM115.838 46.672C115.25 46.672 114.769 46.8493 114.396 47.204C114.032 47.5587 113.799 48.058 113.696 48.702H117.798C117.742 48.0393 117.546 47.5353 117.21 47.19C116.883 46.8447 116.426 46.672 115.838 46.672ZM126.743 45.958V53H125.623V51.726C125.418 52.1647 125.105 52.5053 124.685 52.748C124.275 52.9813 123.794 53.098 123.243 53.098C122.618 53.098 122.067 52.9487 121.591 52.65C121.125 52.3513 120.761 51.9313 120.499 51.39C120.247 50.8393 120.121 50.2 120.121 49.472C120.121 48.744 120.252 48.1047 120.513 47.554C120.775 46.994 121.139 46.56 121.605 46.252C122.081 45.944 122.627 45.79 123.243 45.79C123.794 45.79 124.275 45.9113 124.685 46.154C125.096 46.3967 125.409 46.7373 125.623 47.176V45.958H126.743ZM123.467 52.16C124.158 52.16 124.69 51.9267 125.063 51.46C125.437 50.984 125.623 50.312 125.623 49.444C125.623 48.576 125.437 47.9087 125.063 47.442C124.69 46.9753 124.158 46.742 123.467 46.742C122.777 46.742 122.235 46.9847 121.843 47.47C121.461 47.946 121.269 48.6133 121.269 49.472C121.269 50.3307 121.461 50.9933 121.843 51.46C122.226 51.9267 122.767 52.16 123.467 52.16ZM132.212 45.79C132.445 45.79 132.66 45.818 132.856 45.874L132.828 46.91C132.613 46.8353 132.366 46.798 132.086 46.798C131.404 46.798 130.896 47.0127 130.56 47.442C130.233 47.862 130.07 48.3753 130.07 48.982V53H128.936V47.932C128.936 47.204 128.898 46.546 128.824 45.958H129.902L130.014 47.26C130.191 46.784 130.476 46.42 130.868 46.168C131.26 45.916 131.708 45.79 132.212 45.79ZM137.522 45.79C139.211 45.79 140.056 46.7187 140.056 48.576V53H138.922V48.632C138.922 47.9787 138.791 47.5027 138.53 47.204C138.269 46.896 137.858 46.742 137.298 46.742C136.645 46.742 136.122 46.9427 135.73 47.344C135.338 47.7453 135.142 48.2867 135.142 48.968V53H134.008V47.932C134.008 47.204 133.971 46.546 133.896 45.958H134.974L135.086 47.218C135.301 46.7607 135.623 46.4107 136.052 46.168C136.481 45.916 136.971 45.79 137.522 45.79ZM142.197 45.958H143.331V53H142.197V45.958ZM143.471 42.976V44.264H142.085V42.976H143.471ZM149.047 45.79C150.737 45.79 151.581 46.7187 151.581 48.576V53H150.447V48.632C150.447 47.9787 150.317 47.5027 150.055 47.204C149.794 46.896 149.383 46.742 148.823 46.742C148.17 46.742 147.647 46.9427 147.255 47.344C146.863 47.7453 146.667 48.2867 146.667 48.968V53H145.533V47.932C145.533 47.204 145.496 46.546 145.421 45.958H146.499L146.611 47.218C146.826 46.7607 147.148 46.4107 147.577 46.168C148.007 45.916 148.497 45.79 149.047 45.79ZM159.995 45.958V52.944C159.995 53.9893 159.724 54.778 159.183 55.31C158.651 55.8513 157.862 56.122 156.817 56.122C155.744 56.122 154.82 55.8793 154.045 55.394L154.241 54.47C154.689 54.722 155.109 54.904 155.501 55.016C155.902 55.128 156.341 55.184 156.817 55.184C157.498 55.184 158.012 55.002 158.357 54.638C158.702 54.2833 158.875 53.7513 158.875 53.042V51.376C158.66 51.824 158.343 52.174 157.923 52.426C157.512 52.6687 157.022 52.79 156.453 52.79C155.837 52.79 155.286 52.6453 154.801 52.356C154.325 52.0667 153.956 51.656 153.695 51.124C153.434 50.592 153.303 49.9807 153.303 49.29C153.303 48.5993 153.434 47.988 153.695 47.456C153.956 46.924 154.325 46.5133 154.801 46.224C155.286 45.9347 155.837 45.79 156.453 45.79C157.013 45.79 157.498 45.9113 157.909 46.154C158.329 46.3967 158.646 46.7373 158.861 47.176V45.958H159.995ZM156.677 51.838C157.358 51.838 157.89 51.614 158.273 51.166C158.665 50.7087 158.861 50.0833 158.861 49.29C158.861 48.4967 158.665 47.876 158.273 47.428C157.89 46.9707 157.358 46.742 156.677 46.742C155.986 46.742 155.44 46.9707 155.039 47.428C154.647 47.876 154.451 48.4967 154.451 49.29C154.451 50.0833 154.647 50.7087 155.039 51.166C155.44 51.614 155.986 51.838 156.677 51.838ZM169.336 45.79C169.952 45.79 170.498 45.944 170.974 46.252C171.45 46.56 171.819 46.994 172.08 47.554C172.342 48.1047 172.472 48.744 172.472 49.472C172.472 50.2 172.342 50.8393 172.08 51.39C171.819 51.9313 171.45 52.3513 170.974 52.65C170.508 52.9487 169.962 53.098 169.336 53.098C168.786 53.098 168.305 52.9767 167.894 52.734C167.484 52.4913 167.171 52.146 166.956 51.698V56.024H165.822V47.932C165.822 47.204 165.785 46.546 165.71 45.958H166.788L166.9 47.316C167.096 46.8307 167.404 46.4573 167.824 46.196C168.254 45.9253 168.758 45.79 169.336 45.79ZM169.126 52.16C169.817 52.16 170.349 51.9267 170.722 51.46C171.105 50.9933 171.296 50.3307 171.296 49.472C171.296 48.6133 171.105 47.946 170.722 47.47C170.34 46.9847 169.808 46.742 169.126 46.742C168.426 46.742 167.89 46.9753 167.516 47.442C167.143 47.9087 166.956 48.576 166.956 49.444C166.956 50.312 167.143 50.984 167.516 51.46C167.89 51.9267 168.426 52.16 169.126 52.16ZM174.217 42.696H175.351V53H174.217V42.696ZM183.755 45.958V53H182.635V51.726C182.43 52.1647 182.117 52.5053 181.697 52.748C181.286 52.9813 180.806 53.098 180.255 53.098C179.63 53.098 179.079 52.9487 178.603 52.65C178.136 52.3513 177.772 51.9313 177.511 51.39C177.259 50.8393 177.133 50.2 177.133 49.472C177.133 48.744 177.264 48.1047 177.525 47.554C177.786 46.994 178.15 46.56 178.617 46.252C179.093 45.944 179.639 45.79 180.255 45.79C180.806 45.79 181.286 45.9113 181.697 46.154C182.108 46.3967 182.42 46.7373 182.635 47.176V45.958H183.755ZM180.479 52.16C181.17 52.16 181.702 51.9267 182.075 51.46C182.448 50.984 182.635 50.312 182.635 49.444C182.635 48.576 182.448 47.9087 182.075 47.442C181.702 46.9753 181.17 46.742 180.479 46.742C179.788 46.742 179.247 46.9847 178.855 47.47C178.472 47.946 178.281 48.6133 178.281 49.472C178.281 50.3307 178.472 50.9933 178.855 51.46C179.238 51.9267 179.779 52.16 180.479 52.16ZM187.459 46.854V50.704C187.459 51.2267 187.567 51.5953 187.781 51.81C187.996 52.0153 188.299 52.118 188.691 52.118C188.953 52.118 189.205 52.076 189.447 51.992V52.958C189.158 53.0513 188.831 53.098 188.467 53.098C187.795 53.098 187.268 52.9113 186.885 52.538C186.512 52.1553 186.325 51.5953 186.325 50.858V46.854H184.953V45.958H186.325V44.152L187.459 43.746V45.958H189.475V46.854H187.459ZM193.694 43.62C193.321 43.62 193.027 43.7273 192.812 43.942C192.607 44.1473 192.504 44.5067 192.504 45.02V45.958H194.226V46.854H192.504V53H191.37V46.854H189.998V45.958H191.37V44.88C191.37 44.1427 191.552 43.5873 191.916 43.214C192.29 42.8313 192.808 42.64 193.47 42.64C193.797 42.64 194.114 42.682 194.422 42.766V43.732C194.161 43.6573 193.918 43.62 193.694 43.62ZM198.553 53.098C197.89 53.098 197.307 52.9487 196.803 52.65C196.299 52.3513 195.907 51.9267 195.627 51.376C195.356 50.8253 195.221 50.1813 195.221 49.444C195.221 48.7067 195.356 48.0627 195.627 47.512C195.907 46.9613 196.299 46.5367 196.803 46.238C197.307 45.9393 197.89 45.79 198.553 45.79C199.215 45.79 199.799 45.9393 200.303 46.238C200.807 46.5367 201.194 46.9613 201.465 47.512C201.745 48.0627 201.885 48.7067 201.885 49.444C201.885 50.1813 201.745 50.8253 201.465 51.376C201.194 51.9267 200.807 52.3513 200.303 52.65C199.799 52.9487 199.215 53.098 198.553 53.098ZM198.553 52.16C199.253 52.16 199.789 51.9313 200.163 51.474C200.536 51.0073 200.723 50.3307 200.723 49.444C200.723 48.5853 200.531 47.9227 200.149 47.456C199.766 46.98 199.234 46.742 198.553 46.742C197.862 46.742 197.325 46.98 196.943 47.456C196.56 47.9227 196.369 48.5853 196.369 49.444C196.369 50.3307 196.555 51.0073 196.929 51.474C197.311 51.9313 197.853 52.16 198.553 52.16ZM206.929 45.79C207.162 45.79 207.377 45.818 207.573 45.874L207.545 46.91C207.33 46.8353 207.083 46.798 206.803 46.798C206.121 46.798 205.613 47.0127 205.277 47.442C204.95 47.862 204.787 48.3753 204.787 48.982V53H203.653V47.932C203.653 47.204 203.615 46.546 203.541 45.958H204.619L204.731 47.26C204.908 46.784 205.193 46.42 205.585 46.168C205.977 45.916 206.425 45.79 206.929 45.79ZM216.537 45.79C218.095 45.79 218.875 46.7187 218.875 48.576V53H217.741V48.632C217.741 47.9693 217.624 47.4887 217.391 47.19C217.167 46.8913 216.798 46.742 216.285 46.742C215.687 46.742 215.221 46.9427 214.885 47.344C214.549 47.7453 214.381 48.2913 214.381 48.982V53H213.247V48.632C213.247 47.9787 213.13 47.5027 212.897 47.204C212.663 46.896 212.29 46.742 211.777 46.742C211.179 46.742 210.708 46.9427 210.363 47.344C210.027 47.7453 209.859 48.2913 209.859 48.982V53H208.725V47.932C208.725 47.204 208.687 46.546 208.613 45.958H209.691L209.803 47.19C209.999 46.742 210.288 46.3967 210.671 46.154C211.063 45.9113 211.515 45.79 212.029 45.79C212.589 45.79 213.046 45.902 213.401 46.126C213.755 46.35 214.017 46.6953 214.185 47.162C214.399 46.742 214.712 46.4107 215.123 46.168C215.543 45.916 216.014 45.79 216.537 45.79Z" fill="#8518FF" fill-opacity="0.5"/>
<path d="M11.1732 0.000244141C11.1712 0.000244141 11.169 0.000244141 11.1671 0.000244141C10.4762 0.000244141 9.82639 0.269556 9.33573 0.758991C8.83965 1.25384 8.56641 1.91273 8.56641 2.61417V41.8096C8.56641 43.2469 9.74031 44.4191 11.1835 44.4227C17.2678 44.4373 27.4613 45.7054 34.4934 53.0643V12.0453C34.4934 11.558 34.369 11.1003 34.1341 10.7216C28.3625 1.42674 17.2712 0.0145091 11.1732 0.000244141Z" fill="#8518FF"/>
<path d="M64.4795 41.8096V2.61393C64.4795 1.91249 64.2063 1.25359 63.7102 0.758747C63.2195 0.269312 62.5692 0 61.8791 0C61.8769 0 61.8747 0 61.8727 0C55.7749 0.0145109 44.6837 1.42674 38.9118 10.7216C38.6769 11.1003 38.5527 11.558 38.5527 12.0453V53.0641C45.5849 45.7051 55.7784 44.437 61.8626 44.4225C63.3056 44.4188 64.4795 43.2466 64.4795 41.8096Z" fill="#8518FF"/>
<path d="M70.4319 9.03918H68.5367V41.8094C68.5367 45.4792 65.5467 48.4717 61.8712 48.4808C56.7105 48.4931 48.2012 49.5022 42.1748 55.2059C52.5976 52.654 63.585 54.3129 69.8468 55.7399C70.6287 55.918 71.4366 55.734 72.0631 55.2347C72.6873 54.7367 73.0454 53.9922 73.0454 53.1931V11.6526C73.0456 10.2116 71.8729 9.03918 70.4319 9.03918Z" fill="#8518FF"/>
<path d="M4.50871 41.8094V9.03918H2.61344C1.17268 9.03918 0 10.2116 0 11.6526V53.1924C0 53.9917 0.358099 54.7359 0.982313 55.234C1.60825 55.733 2.41545 55.9177 3.19854 55.7392C9.46036 54.3119 20.4481 52.6533 30.8703 55.2052C24.8441 49.5017 16.3348 48.4928 11.1741 48.4805C7.49893 48.4717 4.50871 45.4792 4.50871 41.8094Z" fill="#8518FF"/>
</svg>
