<svg width="162" height="146" viewBox="0 0 162 146" fill="none" xmlns="http://www.w3.org/2000/svg">
<path d="M45.457 125.804H48.512V127H43.975V117.965H45.457V125.804ZM56.3164 123.243C56.3164 123.512 56.299 123.754 56.2644 123.971H50.7914C50.8347 124.543 51.047 125.002 51.4284 125.349C51.8097 125.696 52.2777 125.869 52.8324 125.869C53.6297 125.869 54.193 125.535 54.5224 124.868H56.1214C55.9047 125.527 55.5104 126.068 54.9384 126.493C54.375 126.909 53.673 127.117 52.8324 127.117C52.1477 127.117 51.5324 126.965 50.9864 126.662C50.449 126.35 50.0244 125.917 49.7124 125.362C49.409 124.799 49.2574 124.149 49.2574 123.412C49.2574 122.675 49.4047 122.03 49.6994 121.475C50.0027 120.912 50.423 120.478 50.9604 120.175C51.5064 119.872 52.1304 119.72 52.8324 119.72C53.5084 119.72 54.1107 119.867 54.6394 120.162C55.168 120.457 55.5797 120.873 55.8744 121.41C56.169 121.939 56.3164 122.55 56.3164 123.243ZM54.7694 122.775C54.7607 122.229 54.5657 121.791 54.1844 121.462C53.803 121.133 53.3307 120.968 52.7674 120.968C52.256 120.968 51.8184 121.133 51.4544 121.462C51.0904 121.783 50.8737 122.22 50.8044 122.775H54.7694ZM57.2808 123.386C57.2808 122.667 57.4281 122.03 57.7228 121.475C58.0261 120.92 58.4335 120.491 58.9448 120.188C59.4648 119.876 60.0368 119.72 60.6608 119.72C61.2241 119.72 61.7138 119.833 62.1298 120.058C62.5545 120.275 62.8925 120.548 63.1438 120.877V119.837H64.6388V127H63.1438V125.934C62.8925 126.272 62.5501 126.554 62.1168 126.779C61.6835 127.004 61.1895 127.117 60.6348 127.117C60.0195 127.117 59.4561 126.961 58.9448 126.649C58.4335 126.328 58.0261 125.886 57.7228 125.323C57.4281 124.751 57.2808 124.105 57.2808 123.386ZM63.1438 123.412C63.1438 122.918 63.0398 122.489 62.8318 122.125C62.6325 121.761 62.3681 121.484 62.0388 121.293C61.7095 121.102 61.3541 121.007 60.9728 121.007C60.5915 121.007 60.2361 121.102 59.9068 121.293C59.5775 121.475 59.3088 121.748 59.1008 122.112C58.9015 122.467 58.8018 122.892 58.8018 123.386C58.8018 123.88 58.9015 124.313 59.1008 124.686C59.3088 125.059 59.5775 125.345 59.9068 125.544C60.2448 125.735 60.6001 125.83 60.9728 125.83C61.3541 125.83 61.7095 125.735 62.0388 125.544C62.3681 125.353 62.6325 125.076 62.8318 124.712C63.0398 124.339 63.1438 123.906 63.1438 123.412ZM68.0674 120.877C68.284 120.513 68.57 120.231 68.9254 120.032C69.2894 119.824 69.7184 119.72 70.2124 119.72V121.254H69.8354C69.2547 121.254 68.8127 121.401 68.5094 121.696C68.2147 121.991 68.0674 122.502 68.0674 123.23V127H66.5854V119.837H68.0674V120.877ZM75.1886 119.72C75.7519 119.72 76.2546 119.837 76.6966 120.071C77.1473 120.305 77.4983 120.652 77.7496 121.111C78.0009 121.57 78.1266 122.125 78.1266 122.775V127H76.6576V122.996C76.6576 122.355 76.4973 121.865 76.1766 121.527C75.8559 121.18 75.4183 121.007 74.8636 121.007C74.3089 121.007 73.8669 121.18 73.5376 121.527C73.2169 121.865 73.0566 122.355 73.0566 122.996V127H71.5746V119.837H73.0566V120.656C73.2993 120.361 73.6069 120.132 73.9796 119.967C74.3609 119.802 74.7639 119.72 75.1886 119.72ZM82.8999 122.463C82.8999 121.579 83.1036 120.786 83.5109 120.084C83.9269 119.382 84.4859 118.836 85.1879 118.446C85.8986 118.047 86.6743 117.848 87.5149 117.848C88.4769 117.848 89.3306 118.086 90.0759 118.563C90.8299 119.031 91.3759 119.698 91.7139 120.565H89.9329C89.6989 120.088 89.3739 119.733 88.9579 119.499C88.5419 119.265 88.0609 119.148 87.5149 119.148C86.9169 119.148 86.3839 119.282 85.9159 119.551C85.4479 119.82 85.0796 120.205 84.8109 120.708C84.5509 121.211 84.4209 121.796 84.4209 122.463C84.4209 123.13 84.5509 123.715 84.8109 124.218C85.0796 124.721 85.4479 125.111 85.9159 125.388C86.3839 125.657 86.9169 125.791 87.5149 125.791C88.0609 125.791 88.5419 125.674 88.9579 125.44C89.3739 125.206 89.6989 124.851 89.9329 124.374H91.7139C91.3759 125.241 90.8299 125.908 90.0759 126.376C89.3306 126.844 88.4769 127.078 87.5149 127.078C86.6656 127.078 85.8899 126.883 85.1879 126.493C84.4859 126.094 83.9269 125.544 83.5109 124.842C83.1036 124.14 82.8999 123.347 82.8999 122.463ZM96.5556 127.117C95.8796 127.117 95.2686 126.965 94.7226 126.662C94.1766 126.35 93.7476 125.917 93.4356 125.362C93.1236 124.799 92.9676 124.149 92.9676 123.412C92.9676 122.684 93.128 122.038 93.4486 121.475C93.7693 120.912 94.207 120.478 94.7616 120.175C95.3163 119.872 95.936 119.72 96.6206 119.72C97.3053 119.72 97.925 119.872 98.4796 120.175C99.0343 120.478 99.472 120.912 99.7926 121.475C100.113 122.038 100.274 122.684 100.274 123.412C100.274 124.14 100.109 124.786 99.7796 125.349C99.4503 125.912 98.9996 126.35 98.4276 126.662C97.8643 126.965 97.2403 127.117 96.5556 127.117ZM96.5556 125.83C96.937 125.83 97.2923 125.739 97.6216 125.557C97.9596 125.375 98.2326 125.102 98.4406 124.738C98.6486 124.374 98.7526 123.932 98.7526 123.412C98.7526 122.892 98.653 122.454 98.4536 122.099C98.2543 121.735 97.99 121.462 97.6606 121.28C97.3313 121.098 96.976 121.007 96.5946 121.007C96.2133 121.007 95.858 121.098 95.5286 121.28C95.208 121.462 94.9523 121.735 94.7616 122.099C94.571 122.454 94.4756 122.892 94.4756 123.412C94.4756 124.183 94.6706 124.781 95.0606 125.206C95.4593 125.622 95.9576 125.83 96.5556 125.83ZM101.245 123.386C101.245 122.667 101.392 122.03 101.687 121.475C101.99 120.92 102.397 120.491 102.909 120.188C103.429 119.876 104.005 119.72 104.638 119.72C105.106 119.72 105.565 119.824 106.016 120.032C106.475 120.231 106.839 120.5 107.108 120.838V117.38H108.603V127H107.108V125.921C106.865 126.268 106.527 126.554 106.094 126.779C105.669 127.004 105.179 127.117 104.625 127.117C104.001 127.117 103.429 126.961 102.909 126.649C102.397 126.328 101.99 125.886 101.687 125.323C101.392 124.751 101.245 124.105 101.245 123.386ZM107.108 123.412C107.108 122.918 107.004 122.489 106.796 122.125C106.596 121.761 106.332 121.484 106.003 121.293C105.673 121.102 105.318 121.007 104.937 121.007C104.555 121.007 104.2 121.102 103.871 121.293C103.541 121.475 103.273 121.748 103.065 122.112C102.865 122.467 102.766 122.892 102.766 123.386C102.766 123.88 102.865 124.313 103.065 124.686C103.273 125.059 103.541 125.345 103.871 125.544C104.209 125.735 104.564 125.83 104.937 125.83C105.318 125.83 105.673 125.735 106.003 125.544C106.332 125.353 106.596 125.076 106.796 124.712C107.004 124.339 107.108 123.906 107.108 123.412ZM117.114 123.243C117.114 123.512 117.097 123.754 117.062 123.971H111.589C111.633 124.543 111.845 125.002 112.226 125.349C112.608 125.696 113.076 125.869 113.63 125.869C114.428 125.869 114.991 125.535 115.32 124.868H116.919C116.703 125.527 116.308 126.068 115.736 126.493C115.173 126.909 114.471 127.117 113.63 127.117C112.946 127.117 112.33 126.965 111.784 126.662C111.247 126.35 110.822 125.917 110.51 125.362C110.207 124.799 110.055 124.149 110.055 123.412C110.055 122.675 110.203 122.03 110.497 121.475C110.801 120.912 111.221 120.478 111.758 120.175C112.304 119.872 112.928 119.72 113.63 119.72C114.306 119.72 114.909 119.867 115.437 120.162C115.966 120.457 116.378 120.873 116.672 121.41C116.967 121.939 117.114 122.55 117.114 123.243ZM115.567 122.775C115.559 122.229 115.364 121.791 114.982 121.462C114.601 121.133 114.129 120.968 113.565 120.968C113.054 120.968 112.616 121.133 112.252 121.462C111.888 121.783 111.672 122.22 111.602 122.775H115.567Z" fill="#8518FF"/>
<path d="M24.7813 0.000244141C24.7769 0.000244141 24.772 0.000244141 24.7677 0.000244141C23.2355 0.000244141 21.7944 0.462069 20.7062 1.30137C19.606 2.14994 19 3.27983 19 4.48269V71.6961C19 74.1609 21.6035 76.171 24.8042 76.1773C38.2978 76.2022 60.9048 78.3768 76.5005 90.9962V20.6554C76.5005 19.8199 76.2245 19.035 75.7036 18.3855C62.9034 2.44644 38.3054 0.0247061 24.7813 0.000244141Z" fill="#8518FF"/>
<path d="M138.5 71.6963V4.48244C138.5 3.27959 137.894 2.1497 136.794 1.30112C135.706 0.461824 134.263 0 132.733 0C132.728 0 132.723 0 132.719 0C119.195 0.0248837 94.5972 2.44662 81.7964 18.3857C81.2755 19.0352 81 19.8201 81 20.6556V90.9959C96.5957 78.3765 119.203 76.2019 132.696 76.1771C135.897 76.1707 138.5 74.1606 138.5 71.6963Z" fill="#8518FF"/>
<path d="M156.204 15.5006H152.001V71.696C152.001 77.9891 145.37 83.1206 137.219 83.1362C125.773 83.1573 106.901 84.8878 93.5361 94.6688C116.652 90.2926 141.019 93.1374 154.907 95.5844C156.641 95.8898 158.433 95.5743 159.822 94.7181C161.206 93.8641 162 92.5874 162 91.2171V19.9822C162.001 17.5111 159.4 15.5006 156.204 15.5006Z" fill="#8518FF"/>
<path d="M9.99934 71.696V15.5006H5.79604C2.60074 15.5006 0 17.5111 0 19.9822V91.2158C0 92.5866 0.794187 93.8628 2.17856 94.7169C3.56675 95.5726 5.35694 95.8893 7.09368 95.5831C20.981 93.1357 45.3494 90.2913 68.4637 94.6675C55.0989 84.8869 36.2271 83.1569 24.7818 83.1358C16.631 83.1206 9.99934 77.9891 9.99934 71.696Z" fill="#8518FF"/>
</svg>
