<svg width="20" height="21" viewBox="0 0 20 21" fill="none" xmlns="http://www.w3.org/2000/svg">
<g clip-path="url(#clip0_1256_256)">
<path d="M7.13333 0.751563C7.08333 2.00163 6.26596 1.90146 5.83333 1.90146C5.40071 1.90146 5 1.55075 5 1.11813C5 0.685509 5.40071 -0.0817708 5.83333 -0.0817708C6.26596 -0.0817708 7.18333 -0.498503 7.13333 0.751563Z" fill="#7B8BB2"/>
<path d="M7.4977 5.23258C7.4537 5.99576 7.08333 6.15186 5.97566 6.09977C5.46915 6.09977 5 5.88175 5 5.53034C5 5.17892 5.46915 4.55567 5.97566 4.55567C6.48218 4.55567 7.54171 4.46939 7.4977 5.23258Z" fill="#7B8BB2"/>
<path d="M5.23438 5.33496H2.89062C1.72566 5.33496 0.78125 4.39055 0.78125 3.22559C0.78125 2.06059 1.72566 1.11621 2.89062 1.11621H5.23438C4.06941 1.11621 3.125 2.06059 3.125 3.22559C3.125 4.39055 4.06941 5.33496 5.23438 5.33496ZM3.125 10.335C3.125 9.16996 4.06941 8.22559 5.23438 8.22559H2.89062C1.72566 8.22559 0.78125 9.16996 0.78125 10.335C0.78125 11.4999 1.72566 12.4443 2.89062 12.4443H5.23438C4.06941 12.4443 3.125 11.4999 3.125 10.335ZM3.125 17.4443C3.125 16.2794 4.06941 15.335 5.23438 15.335H2.89062C1.72566 15.335 0.78125 16.2794 0.78125 17.4443C0.78125 18.6093 1.72566 19.5537 2.89062 19.5537H5.23438C4.06941 19.5537 3.125 18.6093 3.125 17.4443Z" fill="#D7DDEC"/>
<path d="M6.14785 6.11623H2.89062C1.29672 6.11623 0 4.81951 0 3.2256C0 1.6317 1.29672 0.334978 2.89062 0.334978H6.17188C6.60336 0.334978 6.95312 0.684743 6.95312 1.11623C6.95312 1.54771 6.60336 1.89748 6.17188 1.89748H2.89062C2.15828 1.89748 1.5625 2.49326 1.5625 3.2256C1.5625 3.95795 2.15828 4.55373 2.89062 4.55373H6.14785C6.57934 4.55373 6.9291 4.90349 6.9291 5.33498C6.9291 5.76646 6.57934 6.11623 6.14785 6.11623ZM20 3.2256C20 1.6317 18.7033 0.334978 17.1094 0.334978L5.83333 0.334961C5.40185 0.334961 6.95312 0.684743 6.95312 1.11623C6.95312 1.54771 5.65576 1.89748 6.08724 1.89748H17.1094C17.8417 1.89748 18.4375 2.49326 18.4375 3.2256C18.4375 3.95795 17.8417 4.55373 17.1094 4.55373H6.25C5.81852 4.55373 6.9291 4.90349 6.9291 5.33498C6.9291 5.76646 5.81852 6.11623 6.25 6.11623H17.1094C18.7033 6.11623 20 4.81951 20 3.2256ZM13.6328 12.4444C13.6328 12.0129 13.283 11.6631 12.8516 11.6631H2.89062C2.15828 11.6631 1.5625 11.0673 1.5625 10.335C1.5625 9.60263 2.15828 9.00685 2.89062 9.00685H12.8516C13.283 9.00685 13.6328 8.65709 13.6328 8.2256C13.6328 7.79412 13.283 7.44435 12.8516 7.44435H2.89062C1.29672 7.44435 0 8.74107 0 10.335C0 11.9289 1.29672 13.2256 2.89062 13.2256H12.8516C13.283 13.2256 13.6328 12.8758 13.6328 12.4444ZM19.9609 17.4444C19.9609 15.8504 18.6642 14.5537 17.0703 14.5537H7.08333C6.65185 14.5537 5.83333 14.9035 5.83333 15.335C5.83333 15.7665 7.48518 16.1162 7.91667 16.1162H17.0703C17.8027 16.1162 18.3984 16.712 18.3984 17.4444C18.3984 18.1767 17.8027 18.7725 17.0703 18.7725H7.08333C6.65185 18.7725 7.5 19.1222 7.5 19.5537C7.5 19.9852 7.06852 20.335 7.5 20.335H17.0703C18.6642 20.335 19.9609 19.0383 19.9609 17.4444ZM8.86719 19.5537C8.86719 19.1222 8.51742 18.7725 8.08594 18.7725H2.89062C2.15828 18.7725 1.5625 18.1767 1.5625 17.4444C1.5625 16.712 2.15828 16.1162 2.89062 16.1162H8.08594C8.51742 16.1162 8.86719 15.7665 8.86719 15.335C8.86719 14.9035 8.51742 14.5537 8.08594 14.5537H2.89062C1.29672 14.5537 0 15.8504 0 17.4444C0 19.0383 1.29672 20.335 2.89062 20.335H8.08594C8.51742 20.335 8.86719 19.9852 8.86719 19.5537Z" fill="#7B8BB2"/>
<path d="M17.0703 13.2256H15.9766C15.5451 13.2256 15.1953 12.8758 15.1953 12.4443C15.1953 12.0129 15.5451 11.6631 15.9766 11.6631H17.0703C17.8027 11.6631 18.3984 11.0673 18.3984 10.335C18.3984 9.60262 17.8027 9.00684 17.0703 9.00684H15.9766C15.5451 9.00684 15.1953 8.65707 15.1953 8.22559C15.1953 7.7941 15.5451 7.44434 15.9766 7.44434H17.0703C18.6642 7.44434 19.9609 8.74105 19.9609 10.335C19.9609 11.9289 18.6642 13.2256 17.0703 13.2256Z" fill="#D7DDEC"/>
</g>
<defs>
<clipPath id="clip0_1256_256">
<rect width="20" height="20" fill="white" transform="translate(0 0.334961)"/>
</clipPath>
</defs>
</svg>
