<svg width="32" height="37" viewBox="0 0 32 37" fill="none" xmlns="http://www.w3.org/2000/svg">
<path d="M8.75 19.6564V19.6562V15.0312C8.75 12.7446 9.53659 10.5696 10.9104 8.98113C12.2813 7.39606 14.1152 6.53125 16 6.53125C17.8848 6.53125 19.7187 7.39606 21.0896 8.98113C22.4634 10.5696 23.25 12.7446 23.25 15.0312V19.6562V19.6564C23.2501 20.1295 23.4117 20.6013 23.7257 20.9643C23.7257 20.9644 23.7258 20.9644 23.7258 20.9644L26.1891 23.8127C26.2284 23.8581 26.25 23.9162 26.25 23.9762V24.4375C26.25 24.5756 26.1381 24.6875 26 24.6875H6C5.86193 24.6875 5.75 24.5756 5.75 24.4375V23.9762C5.75 23.9162 5.77162 23.8581 5.81091 23.8127L8.2742 20.9644C8.58823 20.6014 8.74991 20.1296 8.75 19.6564ZM18.25 28.9062C18.25 29.6596 17.9902 30.3641 17.554 30.8684C17.1209 31.3693 16.5587 31.625 16 31.625C15.4413 31.625 14.8791 31.3693 14.446 30.8684C14.0098 30.3641 13.75 29.6596 13.75 28.9062V28.5H18.25V28.9062Z" stroke="#0D253C" stroke-width="1.5"/>
<ellipse cx="10" cy="11.5625" rx="6" ry="6.9375" fill="#EB4C42" stroke="#F8FAFF" stroke-width="2"/>
</svg>
