<svg width="301" height="328" viewBox="0 0 301 328" fill="none" xmlns="http://www.w3.org/2000/svg">
<g filter="url(#filter0_d_198_437)">
<mask id="path-1-inside-1_198_437" fill="white">
<path d="M137 50C153.602 50 169.988 53.7578 184.931 60.9918C199.874 68.2257 212.985 78.7482 223.283 91.7704C233.58 104.793 240.797 119.977 244.391 136.185C247.985 152.393 247.864 169.204 244.037 185.359C240.21 201.513 232.776 216.592 222.292 229.464C211.808 242.337 198.546 252.67 183.501 259.688C168.456 266.706 152.017 270.228 135.417 269.989C118.817 269.75 102.486 265.756 87.6491 258.308L92.256 249.131C105.708 255.884 120.514 259.504 135.565 259.721C150.615 259.938 165.519 256.745 179.16 250.382C192.801 244.019 204.825 234.651 214.33 222.98C223.835 211.309 230.575 197.638 234.045 182.991C237.515 168.345 237.625 153.103 234.366 138.408C231.107 123.713 224.565 109.946 215.228 98.1396C205.892 86.3331 194.004 76.7929 180.457 70.2342C166.909 63.6756 152.052 60.2685 137 60.2685V50Z"/>
</mask>
<path d="M137 50C153.602 50 169.988 53.7578 184.931 60.9918C199.874 68.2257 212.985 78.7482 223.283 91.7704C233.58 104.793 240.797 119.977 244.391 136.185C247.985 152.393 247.864 169.204 244.037 185.359C240.21 201.513 232.776 216.592 222.292 229.464C211.808 242.337 198.546 252.67 183.501 259.688C168.456 266.706 152.017 270.228 135.417 269.989C118.817 269.75 102.486 265.756 87.6491 258.308L92.256 249.131C105.708 255.884 120.514 259.504 135.565 259.721C150.615 259.938 165.519 256.745 179.16 250.382C192.801 244.019 204.825 234.651 214.33 222.98C223.835 211.309 230.575 197.638 234.045 182.991C237.515 168.345 237.625 153.103 234.366 138.408C231.107 123.713 224.565 109.946 215.228 98.1396C205.892 86.3331 194.004 76.7929 180.457 70.2342C166.909 63.6756 152.052 60.2685 137 60.2685V50Z" stroke="#8518FF" stroke-width="16" stroke-linecap="round" mask="url(#path-1-inside-1_198_437)"/>
</g>
<g filter="url(#filter1_d_198_437)">
<mask id="path-2-inside-2_198_437" fill="white">
<path d="M136.999 67.2173C158.104 67.2173 178.579 74.4125 195.044 87.6157C211.509 100.819 222.98 119.241 227.566 139.842C232.151 160.442 229.576 181.991 220.266 200.931C210.955 219.871 195.466 235.071 176.353 244.023C157.241 252.975 135.647 255.143 115.137 250.17C94.626 245.197 76.4237 233.38 63.5334 216.669C50.6431 199.958 43.8353 179.351 44.2333 158.25C44.6313 137.149 52.2114 116.814 65.7227 100.601L72.6195 106.348C60.4156 120.993 53.5689 139.36 53.2094 158.419C52.8499 177.479 58.999 196.091 70.642 211.185C82.285 226.279 98.7261 236.953 117.252 241.445C135.778 245.937 155.282 243.978 172.545 235.893C189.808 227.807 203.799 214.078 212.209 196.971C220.618 179.863 222.944 160.4 218.802 141.792C214.661 123.185 204.299 106.545 189.427 94.6196C174.555 82.694 156.062 76.195 136.999 76.195V67.2173Z"/>
</mask>
<path d="M136.999 67.2173C158.104 67.2173 178.579 74.4125 195.044 87.6157C211.509 100.819 222.98 119.241 227.566 139.842C232.151 160.442 229.576 181.991 220.266 200.931C210.955 219.871 195.466 235.071 176.353 244.023C157.241 252.975 135.647 255.143 115.137 250.17C94.626 245.197 76.4237 233.38 63.5334 216.669C50.6431 199.958 43.8353 179.351 44.2333 158.25C44.6313 137.149 52.2114 116.814 65.7227 100.601L72.6195 106.348C60.4156 120.993 53.5689 139.36 53.2094 158.419C52.8499 177.479 58.999 196.091 70.642 211.185C82.285 226.279 98.7261 236.953 117.252 241.445C135.778 245.937 155.282 243.978 172.545 235.893C189.808 227.807 203.799 214.078 212.209 196.971C220.618 179.863 222.944 160.4 218.802 141.792C214.661 123.185 204.299 106.545 189.427 94.6196C174.555 82.694 156.062 76.195 136.999 76.195V67.2173Z" stroke="#FD55BA" stroke-width="22" stroke-linecap="round" stroke-linejoin="round" mask="url(#path-2-inside-2_198_437)"/>
</g>
<circle opacity="0.1" cx="137" cy="160" r="71.773" fill="#C4C4C4"/>
<path d="M137.78 126.454C119.282 126.454 104.234 141.502 104.234 160C104.234 178.498 119.282 193.546 137.78 193.546C156.279 193.546 171.327 178.498 171.327 160C171.327 141.502 156.279 126.454 137.78 126.454Z" fill="#1AD285"/>
<path d="M154.783 152.891L136.612 171.061C136.067 171.606 135.351 171.881 134.635 171.881C133.92 171.881 133.204 171.606 132.659 171.061L123.574 161.976C122.481 160.883 122.481 159.116 123.574 158.023C124.667 156.93 126.433 156.93 127.527 158.023L134.635 165.132L150.83 148.938C151.923 147.845 153.689 147.845 154.783 148.938C155.876 150.031 155.876 151.798 154.783 152.891Z" fill="#FAFAFA"/>
<defs>
<filter id="filter0_d_198_437" x="33.6494" y="0" width="267.351" height="328" filterUnits="userSpaceOnUse" color-interpolation-filters="sRGB">
<feFlood flood-opacity="0" result="BackgroundImageFix"/>
<feColorMatrix in="SourceAlpha" type="matrix" values="0 0 0 0 0 0 0 0 0 0 0 0 0 0 0 0 0 0 127 0" result="hardAlpha"/>
<feOffset dy="4"/>
<feGaussianBlur stdDeviation="27"/>
<feColorMatrix type="matrix" values="0 0 0 0 0.196408 0 0 0 0 0.18375 0 0 0 0 0.816667 0 0 0 1 0"/>
<feBlend mode="normal" in2="BackgroundImageFix" result="effect1_dropShadow_198_437"/>
<feBlend mode="normal" in="SourceGraphic" in2="effect1_dropShadow_198_437" result="shape"/>
</filter>
<filter id="filter1_d_198_437" x="0.216797" y="27.2173" width="273.565" height="273.565" filterUnits="userSpaceOnUse" color-interpolation-filters="sRGB">
<feFlood flood-opacity="0" result="BackgroundImageFix"/>
<feColorMatrix in="SourceAlpha" type="matrix" values="0 0 0 0 0 0 0 0 0 0 0 0 0 0 0 0 0 0 127 0" result="hardAlpha"/>
<feOffset dy="4"/>
<feGaussianBlur stdDeviation="22"/>
<feColorMatrix type="matrix" values="0 0 0 0 0.991667 0 0 0 0 0.334687 0 0 0 0 0.728875 0 0 0 0.38 0"/>
<feBlend mode="normal" in2="BackgroundImageFix" result="effect1_dropShadow_198_437"/>
<feBlend mode="normal" in="SourceGraphic" in2="effect1_dropShadow_198_437" result="shape"/>
</filter>
</defs>
</svg>
