<svg width="60" height="60" viewBox="0 0 60 60" fill="none" xmlns="http://www.w3.org/2000/svg">
<path d="M30 0C13.4573 0 0 13.4573 0 30C0 46.5427 13.4573 60 30 60C46.5427 60 60 46.5427 60 30C60 13.4573 46.5427 0 30 0Z" fill="#1AD285"/>
<path d="M45.2047 23.6422L28.9546 39.8919C28.467 40.3794 27.8271 40.6248 27.1871 40.6248C26.5472 40.6248 25.9072 40.3794 25.4197 39.8919L17.2949 31.7671C16.3171 30.7897 16.3171 29.2095 17.2949 28.2322C18.2722 27.2544 19.8519 27.2544 20.8297 28.2322L27.1871 34.5896L41.6699 20.1074C42.6472 19.1296 44.2269 19.1296 45.2047 20.1074C46.182 21.0847 46.182 22.6644 45.2047 23.6422Z" fill="#FAFAFA"/>
</svg>
